<mxfile host="app.diagrams.net" agent="Mozilla/5.0 (Macintosh; Intel Mac OS X 10_15_7) AppleWebKit/537.36 (KHTML, like Gecko) Chrome/131.0.0.0 Safari/537.36" version="25.0.3">
  <diagram name="Page-1" id="AUy3EI1KakjaxWd04UtZ">
    <mxGraphModel dx="1434" dy="761" grid="1" gridSize="10" guides="1" tooltips="1" connect="1" arrows="1" fold="1" page="1" pageScale="1" pageWidth="850" pageHeight="1100" math="0" shadow="0">
      <root>
        <mxCell id="0" />
        <mxCell id="1" parent="0" />
        <mxCell id="A6ZifmPWgquHg6qRHRCh-1" value="" style="whiteSpace=wrap;html=1;aspect=fixed;fillColor=none;" vertex="1" parent="1">
          <mxGeometry x="280" y="220" width="530" height="530" as="geometry" />
        </mxCell>
        <mxCell id="A6ZifmPWgquHg6qRHRCh-2" value="Network analysis framework" style="text;html=1;align=center;verticalAlign=middle;resizable=0;points=[];autosize=1;strokeColor=none;fillColor=none;" vertex="1" parent="1">
          <mxGeometry x="405" y="190" width="170" height="30" as="geometry" />
        </mxCell>
        <mxCell id="A6ZifmPWgquHg6qRHRCh-4" value="Costant" style="whiteSpace=wrap;html=1;aspect=fixed;" vertex="1" parent="1">
          <mxGeometry x="600" y="650" width="80" height="80" as="geometry" />
        </mxCell>
        <mxCell id="A6ZifmPWgquHg6qRHRCh-6" value="Games" style="whiteSpace=wrap;html=1;aspect=fixed;" vertex="1" parent="1">
          <mxGeometry x="400" y="650" width="80" height="80" as="geometry" />
        </mxCell>
        <mxCell id="A6ZifmPWgquHg6qRHRCh-7" value="&amp;laquo;Annotation&amp;raquo;&lt;br/&gt;&lt;b&gt;Component&lt;/b&gt;" style="html=1;dropTarget=0;whiteSpace=wrap;" vertex="1" parent="1">
          <mxGeometry x="20" y="310" width="180" height="90" as="geometry" />
        </mxCell>
        <mxCell id="A6ZifmPWgquHg6qRHRCh-8" value="" style="shape=module;jettyWidth=8;jettyHeight=4;" vertex="1" parent="A6ZifmPWgquHg6qRHRCh-7">
          <mxGeometry x="1" width="20" height="20" relative="1" as="geometry">
            <mxPoint x="-27" y="7" as="offset" />
          </mxGeometry>
        </mxCell>
        <mxCell id="A6ZifmPWgquHg6qRHRCh-9" value="Module" style="shape=module;align=left;spacingLeft=20;align=center;verticalAlign=top;whiteSpace=wrap;html=1;" vertex="1" parent="1">
          <mxGeometry y="480" width="100" height="50" as="geometry" />
        </mxCell>
      </root>
    </mxGraphModel>
  </diagram>
</mxfile>
